<mxfile host="65bd71144e">
    <diagram name="client与Index 与 DiskANN 交互" id="890vanNXvDQpQVHvsPO6">
        <mxGraphModel dx="1310" dy="956" grid="1" gridSize="10" guides="1" tooltips="1" connect="1" arrows="1" fold="1" page="1" pageScale="1" pageWidth="1169" pageHeight="827" math="0" shadow="0">
            <root>
                <mxCell id="_GKx4WZQEgGPNWmIFQ_N-0"/>
                <mxCell id="_GKx4WZQEgGPNWmIFQ_N-1" parent="_GKx4WZQEgGPNWmIFQ_N-0"/>
                <mxCell id="_GKx4WZQEgGPNWmIFQ_N-2" value="Actor" style="shape=umlActor;verticalLabelPosition=bottom;verticalAlign=top;html=1;outlineConnect=0;" parent="_GKx4WZQEgGPNWmIFQ_N-1" vertex="1">
                    <mxGeometry x="220" y="190" width="30" height="60" as="geometry"/>
                </mxCell>
                <mxCell id="_GKx4WZQEgGPNWmIFQ_N-3" value="" style="endArrow=none;html=1;" parent="_GKx4WZQEgGPNWmIFQ_N-1" edge="1">
                    <mxGeometry width="50" height="50" relative="1" as="geometry">
                        <mxPoint x="235" y="750" as="sourcePoint"/>
                        <mxPoint x="235" y="250" as="targetPoint"/>
                    </mxGeometry>
                </mxCell>
                <mxCell id="_GKx4WZQEgGPNWmIFQ_N-4" value="Actor" style="shape=umlActor;verticalLabelPosition=bottom;verticalAlign=top;html=1;outlineConnect=0;" parent="_GKx4WZQEgGPNWmIFQ_N-1" vertex="1">
                    <mxGeometry x="570" y="191" width="30" height="60" as="geometry"/>
                </mxCell>
                <mxCell id="_GKx4WZQEgGPNWmIFQ_N-5" value="" style="endArrow=none;html=1;" parent="_GKx4WZQEgGPNWmIFQ_N-1" edge="1">
                    <mxGeometry width="50" height="50" relative="1" as="geometry">
                        <mxPoint x="585" y="751" as="sourcePoint"/>
                        <mxPoint x="585" y="251" as="targetPoint"/>
                    </mxGeometry>
                </mxCell>
                <mxCell id="_GKx4WZQEgGPNWmIFQ_N-6" value="Client" style="text;html=1;strokeColor=none;fillColor=none;align=center;verticalAlign=middle;whiteSpace=wrap;rounded=0;" parent="_GKx4WZQEgGPNWmIFQ_N-1" vertex="1">
                    <mxGeometry x="205" y="160" width="60" height="30" as="geometry"/>
                </mxCell>
                <mxCell id="_GKx4WZQEgGPNWmIFQ_N-7" value="Index" style="text;html=1;strokeColor=none;fillColor=none;align=center;verticalAlign=middle;whiteSpace=wrap;rounded=0;" parent="_GKx4WZQEgGPNWmIFQ_N-1" vertex="1">
                    <mxGeometry x="555" y="160" width="60" height="30" as="geometry"/>
                </mxCell>
                <mxCell id="_GKx4WZQEgGPNWmIFQ_N-8" value="" style="endArrow=classic;html=1;" parent="_GKx4WZQEgGPNWmIFQ_N-1" edge="1">
                    <mxGeometry width="50" height="50" relative="1" as="geometry">
                        <mxPoint x="240" y="290" as="sourcePoint"/>
                        <mxPoint x="580" y="290" as="targetPoint"/>
                    </mxGeometry>
                </mxCell>
                <mxCell id="_GKx4WZQEgGPNWmIFQ_N-9" value="Import Request" style="text;html=1;strokeColor=none;fillColor=none;align=center;verticalAlign=middle;whiteSpace=wrap;rounded=0;" parent="_GKx4WZQEgGPNWmIFQ_N-1" vertex="1">
                    <mxGeometry x="340" y="260" width="110" height="30" as="geometry"/>
                </mxCell>
                <mxCell id="_GKx4WZQEgGPNWmIFQ_N-10" value="" style="endArrow=classic;html=1;" parent="_GKx4WZQEgGPNWmIFQ_N-1" edge="1">
                    <mxGeometry width="50" height="50" relative="1" as="geometry">
                        <mxPoint x="580" y="330" as="sourcePoint"/>
                        <mxPoint x="240" y="330" as="targetPoint"/>
                    </mxGeometry>
                </mxCell>
                <mxCell id="_GKx4WZQEgGPNWmIFQ_N-11" value="Import Response" style="text;html=1;strokeColor=none;fillColor=none;align=center;verticalAlign=middle;whiteSpace=wrap;rounded=0;" parent="_GKx4WZQEgGPNWmIFQ_N-1" vertex="1">
                    <mxGeometry x="339" y="300" width="131" height="30" as="geometry"/>
                </mxCell>
                <mxCell id="_GKx4WZQEgGPNWmIFQ_N-12" value="" style="endArrow=classic;html=1;" parent="_GKx4WZQEgGPNWmIFQ_N-1" edge="1">
                    <mxGeometry width="50" height="50" relative="1" as="geometry">
                        <mxPoint x="237" y="503.9999999999999" as="sourcePoint"/>
                        <mxPoint x="576.9999999999998" y="503.9999999999999" as="targetPoint"/>
                    </mxGeometry>
                </mxCell>
                <mxCell id="_GKx4WZQEgGPNWmIFQ_N-13" value="Import Request" style="text;html=1;strokeColor=none;fillColor=none;align=center;verticalAlign=middle;whiteSpace=wrap;rounded=0;" parent="_GKx4WZQEgGPNWmIFQ_N-1" vertex="1">
                    <mxGeometry x="337" y="474" width="110" height="30" as="geometry"/>
                </mxCell>
                <mxCell id="_GKx4WZQEgGPNWmIFQ_N-14" value="" style="endArrow=classic;html=1;" parent="_GKx4WZQEgGPNWmIFQ_N-1" edge="1">
                    <mxGeometry width="50" height="50" relative="1" as="geometry">
                        <mxPoint x="576.9999999999998" y="543.9999999999999" as="sourcePoint"/>
                        <mxPoint x="237" y="543.9999999999999" as="targetPoint"/>
                    </mxGeometry>
                </mxCell>
                <mxCell id="_GKx4WZQEgGPNWmIFQ_N-15" value="Import Response" style="text;html=1;strokeColor=none;fillColor=none;align=center;verticalAlign=middle;whiteSpace=wrap;rounded=0;" parent="_GKx4WZQEgGPNWmIFQ_N-1" vertex="1">
                    <mxGeometry x="336" y="514" width="131" height="30" as="geometry"/>
                </mxCell>
                <mxCell id="_GKx4WZQEgGPNWmIFQ_N-16" value="&lt;font style=&quot;font-size: 22px;&quot;&gt;.&lt;br&gt;.&lt;br&gt;.&lt;/font&gt;" style="text;html=1;strokeColor=none;fillColor=none;align=center;verticalAlign=middle;whiteSpace=wrap;rounded=0;" parent="_GKx4WZQEgGPNWmIFQ_N-1" vertex="1">
                    <mxGeometry x="365" y="375" width="60" height="40" as="geometry"/>
                </mxCell>
                <mxCell id="V0m47npN4N563cn-UdCl-0" value="Actor" style="shape=umlActor;verticalLabelPosition=bottom;verticalAlign=top;html=1;outlineConnect=0;" parent="_GKx4WZQEgGPNWmIFQ_N-1" vertex="1">
                    <mxGeometry x="898" y="190" width="30" height="60" as="geometry"/>
                </mxCell>
                <mxCell id="V0m47npN4N563cn-UdCl-1" value="" style="endArrow=none;html=1;" parent="_GKx4WZQEgGPNWmIFQ_N-1" edge="1">
                    <mxGeometry width="50" height="50" relative="1" as="geometry">
                        <mxPoint x="913" y="750" as="sourcePoint"/>
                        <mxPoint x="913" y="250" as="targetPoint"/>
                    </mxGeometry>
                </mxCell>
                <mxCell id="V0m47npN4N563cn-UdCl-2" value="DiskANN" style="text;html=1;strokeColor=none;fillColor=none;align=center;verticalAlign=middle;whiteSpace=wrap;rounded=0;" parent="_GKx4WZQEgGPNWmIFQ_N-1" vertex="1">
                    <mxGeometry x="883" y="160" width="60" height="30" as="geometry"/>
                </mxCell>
                <mxCell id="V0m47npN4N563cn-UdCl-3" value="" style="endArrow=classic;html=1;" parent="_GKx4WZQEgGPNWmIFQ_N-1" edge="1">
                    <mxGeometry width="50" height="50" relative="1" as="geometry">
                        <mxPoint x="587" y="347" as="sourcePoint"/>
                        <mxPoint x="912" y="349" as="targetPoint"/>
                    </mxGeometry>
                </mxCell>
                <mxCell id="V0m47npN4N563cn-UdCl-4" value="PushData Request" style="text;html=1;strokeColor=none;fillColor=none;align=center;verticalAlign=middle;whiteSpace=wrap;rounded=0;" parent="_GKx4WZQEgGPNWmIFQ_N-1" vertex="1">
                    <mxGeometry x="675" y="319" width="110" height="30" as="geometry"/>
                </mxCell>
                <mxCell id="V0m47npN4N563cn-UdCl-5" value="" style="endArrow=classic;html=1;" parent="_GKx4WZQEgGPNWmIFQ_N-1" edge="1">
                    <mxGeometry width="50" height="50" relative="1" as="geometry">
                        <mxPoint x="910" y="389" as="sourcePoint"/>
                        <mxPoint x="585" y="389" as="targetPoint"/>
                    </mxGeometry>
                </mxCell>
                <mxCell id="V0m47npN4N563cn-UdCl-6" value="PushData Response" style="text;html=1;strokeColor=none;fillColor=none;align=center;verticalAlign=middle;whiteSpace=wrap;rounded=0;" parent="_GKx4WZQEgGPNWmIFQ_N-1" vertex="1">
                    <mxGeometry x="674" y="359" width="156" height="30" as="geometry"/>
                </mxCell>
                <mxCell id="dHvZ3r4oPOCRgeNNPPHm-0" value="" style="endArrow=classic;html=1;" edge="1" parent="_GKx4WZQEgGPNWmIFQ_N-1">
                    <mxGeometry width="50" height="50" relative="1" as="geometry">
                        <mxPoint x="587.0000000000002" y="439.17" as="sourcePoint"/>
                        <mxPoint x="912" y="441.17" as="targetPoint"/>
                    </mxGeometry>
                </mxCell>
                <mxCell id="dHvZ3r4oPOCRgeNNPPHm-1" value="Build Request" style="text;html=1;strokeColor=none;fillColor=none;align=center;verticalAlign=middle;whiteSpace=wrap;rounded=0;" vertex="1" parent="_GKx4WZQEgGPNWmIFQ_N-1">
                    <mxGeometry x="675" y="411.17" width="110" height="30" as="geometry"/>
                </mxCell>
                <mxCell id="dHvZ3r4oPOCRgeNNPPHm-2" value="" style="endArrow=classic;html=1;" edge="1" parent="_GKx4WZQEgGPNWmIFQ_N-1">
                    <mxGeometry width="50" height="50" relative="1" as="geometry">
                        <mxPoint x="910" y="481.17" as="sourcePoint"/>
                        <mxPoint x="585" y="481.17" as="targetPoint"/>
                    </mxGeometry>
                </mxCell>
                <mxCell id="dHvZ3r4oPOCRgeNNPPHm-3" value="Build Response" style="text;html=1;strokeColor=none;fillColor=none;align=center;verticalAlign=middle;whiteSpace=wrap;rounded=0;" vertex="1" parent="_GKx4WZQEgGPNWmIFQ_N-1">
                    <mxGeometry x="674" y="451.17" width="156" height="30" as="geometry"/>
                </mxCell>
                <mxCell id="dHvZ3r4oPOCRgeNNPPHm-4" value="" style="endArrow=classic;html=1;" edge="1" parent="_GKx4WZQEgGPNWmIFQ_N-1">
                    <mxGeometry width="50" height="50" relative="1" as="geometry">
                        <mxPoint x="245" y="590" as="sourcePoint"/>
                        <mxPoint x="584.9999999999998" y="590" as="targetPoint"/>
                    </mxGeometry>
                </mxCell>
                <mxCell id="dHvZ3r4oPOCRgeNNPPHm-5" value="Reset Request" style="text;html=1;strokeColor=none;fillColor=none;align=center;verticalAlign=middle;whiteSpace=wrap;rounded=0;" vertex="1" parent="_GKx4WZQEgGPNWmIFQ_N-1">
                    <mxGeometry x="345" y="560" width="110" height="30" as="geometry"/>
                </mxCell>
                <mxCell id="dHvZ3r4oPOCRgeNNPPHm-6" value="" style="endArrow=classic;html=1;" edge="1" parent="_GKx4WZQEgGPNWmIFQ_N-1">
                    <mxGeometry width="50" height="50" relative="1" as="geometry">
                        <mxPoint x="584.9999999999998" y="630" as="sourcePoint"/>
                        <mxPoint x="245" y="630" as="targetPoint"/>
                    </mxGeometry>
                </mxCell>
                <mxCell id="dHvZ3r4oPOCRgeNNPPHm-7" value="Reset Response" style="text;html=1;strokeColor=none;fillColor=none;align=center;verticalAlign=middle;whiteSpace=wrap;rounded=0;" vertex="1" parent="_GKx4WZQEgGPNWmIFQ_N-1">
                    <mxGeometry x="344" y="600" width="131" height="30" as="geometry"/>
                </mxCell>
                <mxCell id="dHvZ3r4oPOCRgeNNPPHm-8" value="" style="endArrow=classic;html=1;" edge="1" parent="_GKx4WZQEgGPNWmIFQ_N-1">
                    <mxGeometry width="50" height="50" relative="1" as="geometry">
                        <mxPoint x="590" y="590" as="sourcePoint"/>
                        <mxPoint x="910" y="590" as="targetPoint"/>
                    </mxGeometry>
                </mxCell>
                <mxCell id="dHvZ3r4oPOCRgeNNPPHm-9" value="Reset Request" style="text;html=1;strokeColor=none;fillColor=none;align=center;verticalAlign=middle;whiteSpace=wrap;rounded=0;" vertex="1" parent="_GKx4WZQEgGPNWmIFQ_N-1">
                    <mxGeometry x="695" y="560" width="110" height="30" as="geometry"/>
                </mxCell>
                <mxCell id="dHvZ3r4oPOCRgeNNPPHm-10" value="" style="endArrow=classic;html=1;" edge="1" parent="_GKx4WZQEgGPNWmIFQ_N-1">
                    <mxGeometry width="50" height="50" relative="1" as="geometry">
                        <mxPoint x="910" y="630" as="sourcePoint"/>
                        <mxPoint x="590" y="630" as="targetPoint"/>
                    </mxGeometry>
                </mxCell>
                <mxCell id="dHvZ3r4oPOCRgeNNPPHm-11" value="Reset Response" style="text;html=1;strokeColor=none;fillColor=none;align=center;verticalAlign=middle;whiteSpace=wrap;rounded=0;" vertex="1" parent="_GKx4WZQEgGPNWmIFQ_N-1">
                    <mxGeometry x="694" y="600" width="131" height="30" as="geometry"/>
                </mxCell>
                <mxCell id="dHvZ3r4oPOCRgeNNPPHm-12" value="" style="endArrow=classic;html=1;" edge="1" parent="_GKx4WZQEgGPNWmIFQ_N-1">
                    <mxGeometry width="50" height="50" relative="1" as="geometry">
                        <mxPoint x="240" y="674" as="sourcePoint"/>
                        <mxPoint x="579.9999999999998" y="674" as="targetPoint"/>
                    </mxGeometry>
                </mxCell>
                <mxCell id="dHvZ3r4oPOCRgeNNPPHm-13" value="Build Request" style="text;html=1;strokeColor=none;fillColor=none;align=center;verticalAlign=middle;whiteSpace=wrap;rounded=0;" vertex="1" parent="_GKx4WZQEgGPNWmIFQ_N-1">
                    <mxGeometry x="340" y="644" width="110" height="30" as="geometry"/>
                </mxCell>
                <mxCell id="dHvZ3r4oPOCRgeNNPPHm-14" value="" style="endArrow=classic;html=1;" edge="1" parent="_GKx4WZQEgGPNWmIFQ_N-1">
                    <mxGeometry width="50" height="50" relative="1" as="geometry">
                        <mxPoint x="579.9999999999998" y="714" as="sourcePoint"/>
                        <mxPoint x="240" y="714" as="targetPoint"/>
                    </mxGeometry>
                </mxCell>
                <mxCell id="dHvZ3r4oPOCRgeNNPPHm-15" value="Build Response" style="text;html=1;strokeColor=none;fillColor=none;align=center;verticalAlign=middle;whiteSpace=wrap;rounded=0;" vertex="1" parent="_GKx4WZQEgGPNWmIFQ_N-1">
                    <mxGeometry x="339" y="684" width="131" height="30" as="geometry"/>
                </mxCell>
                <mxCell id="dHvZ3r4oPOCRgeNNPPHm-16" value="" style="endArrow=classic;html=1;" edge="1" parent="_GKx4WZQEgGPNWmIFQ_N-1">
                    <mxGeometry width="50" height="50" relative="1" as="geometry">
                        <mxPoint x="585" y="674" as="sourcePoint"/>
                        <mxPoint x="905" y="674" as="targetPoint"/>
                    </mxGeometry>
                </mxCell>
                <mxCell id="dHvZ3r4oPOCRgeNNPPHm-17" value="Build Request" style="text;html=1;strokeColor=none;fillColor=none;align=center;verticalAlign=middle;whiteSpace=wrap;rounded=0;" vertex="1" parent="_GKx4WZQEgGPNWmIFQ_N-1">
                    <mxGeometry x="690" y="644" width="110" height="30" as="geometry"/>
                </mxCell>
                <mxCell id="dHvZ3r4oPOCRgeNNPPHm-18" value="" style="endArrow=classic;html=1;" edge="1" parent="_GKx4WZQEgGPNWmIFQ_N-1">
                    <mxGeometry width="50" height="50" relative="1" as="geometry">
                        <mxPoint x="905" y="714" as="sourcePoint"/>
                        <mxPoint x="585" y="714" as="targetPoint"/>
                    </mxGeometry>
                </mxCell>
                <mxCell id="dHvZ3r4oPOCRgeNNPPHm-19" value="Build Response" style="text;html=1;strokeColor=none;fillColor=none;align=center;verticalAlign=middle;whiteSpace=wrap;rounded=0;" vertex="1" parent="_GKx4WZQEgGPNWmIFQ_N-1">
                    <mxGeometry x="689" y="684" width="131" height="30" as="geometry"/>
                </mxCell>
            </root>
        </mxGraphModel>
    </diagram>
</mxfile>